<svg fill="#985eb2" enable-background="new 0 0 31 26" viewBox="0 0 31 26" xmlns="http://www.w3.org/2000/svg"><path d="m16.5 16.4h-5.6c-.9 0-1.7.8-1.7 1.8v6c0 1 .8 1.8 1.7 1.8h5.6c.9 0 1.7-.8 1.7-1.8v-6c0-1-.7-1.8-1.7-1.8zm-.5 3v3.5c0 .4-.3.7-.7.7h-3.3c-.4 0-.7-.3-.7-.7v-3.5c0-.4.3-.7.7-.7h3.3c.4 0 .7.3.7.7z"/><path d="m7.4 0h-5.7c-.9 0-1.7.8-1.7 1.8v6.1c0 1 .8 1.8 1.7 1.8h3.8v-2.3h-2.6c-.4 0-.7-.3-.7-.7v-3.6c0-.4.3-.7.7-.7h3.3c.4 0 .7.3.7.7v7.8c0 .4-.3.7-.7.7h-6.2v2.4h7.4c1 0 1.7-.8 1.7-1.8v-10.4c0-1-.7-1.8-1.7-1.8z"/><path d="m0 18.2v6c0 1 .8 1.8 1.7 1.8h5.8v-2.3h-4.2-.4c-.4 0-.7-.3-.7-.7v-3.5c0-.4.3-.7.7-.7h4.6v-2.3h-5.8c-.9-.1-1.7.7-1.7 1.7z"/><path d="m29.2 0h-5.7c-1 0-1.7.8-1.7 1.8v6.1c0 1 .8 1.8 1.7 1.8h3.8v-2.3h-2.7c-.4 0-.7-.3-.7-.7v-3.6c0-.4.3-.7.7-.7h3.3c.4 0 .7.3.7.7v7.8c0 .4-.3.7-.7.7h-6.2v2.4h7.4c1 0 1.7-.8 1.7-1.8v-10.4c.2-1-.6-1.8-1.6-1.8z"/><path d="m20.1 1.8c0-1-.8-1.8-1.7-1.8h-5.7c-1 0-1.7.8-1.7 1.8v6.1c0 1 .8 1.8 1.7 1.8h5.7c1 0 1.7-.8 1.7-1.8zm-2.3 1.3v3.6c0 .4-.3.7-.7.7h-3.3c-.4 0-.7-.3-.7-.7v-3.6c0-.4.3-.7.7-.7h3.3c.4 0 .7.3.7.7z"/><path d="m20 18.2v7.8h2.2v-6.6c0-.4.3-.7.7-.7h1.5v7.3h2.2v-6.6c0-.4.3-.7.7-.7h1.5v7.3h2.2v-9.6h-9.3c-1 0-1.7.8-1.7 1.8z"/></svg>
