<svg width="365" height="436" xmlns="http://www.w3.org/2000/svg" xmlns:xlink="http://www.w3.org/1999/xlink">
    <defs>
        <path d="M108.001 36.066l-3.235 31.566 2.311 59.411-2.311 23.694v58.94l-2.082 55.239 2.082 8.273-43.66 34.009-1.218-53.829 2.279-70.52-5.19-74.984-27.13 22.12V74.035l74.919-57.127L108 36.067zm112.822 271.257l-86.975-65.884V185.6l-3.466-22.435 3.466-25.208V82.56l86.975-65.856 53.144 26.467 34.18 39.389 6.27 52.99-6.27 20.21v85.68l-87.324 65.883zm6.016-235.769L182.48 104.53l5.16 18.546-5.16 14.917v34.273l-1.184 31.01 1.184 16.19 16.59 14.724 21.99 14.602 41.554-29.984-1.284-61.325 1.88-39.995 4.031-10.264-40.402-35.669z" id="b"/>
        <filter x="-34.1%" y="-33.4%" width="168.2%" height="166.8%" filterUnits="objectBoundingBox" id="a">
            <feOffset in="SourceAlpha" result="shadowOffsetOuter1"/>
            <feGaussianBlur stdDeviation="29" in="shadowOffsetOuter1" result="shadowBlurOuter1"/>
            <feColorMatrix values="0 0 0 0 0.858823529 0 0 0 0 0.48627451 0 0 0 0 0.823529412 0 0 0 1 0" in="shadowBlurOuter1" result="shadowMatrixOuter1"/>
            <feOffset in="SourceAlpha" result="shadowOffsetOuter2"/>
            <feGaussianBlur stdDeviation="5" in="shadowOffsetOuter2" result="shadowBlurOuter2"/>
            <feColorMatrix values="0 0 0 0 0.117647059 0 0 0 0 0 0 0 0 0 0.239215686 0 0 0 0.65 0" in="shadowBlurOuter2" result="shadowMatrixOuter2"/>
            <feMerge>
                <feMergeNode in="shadowMatrixOuter1"/>
                <feMergeNode in="shadowMatrixOuter2"/>
            </feMerge>
        </filter>
    </defs>
    <g fill="none" fill-rule="evenodd">
        <g opacity=".9" transform="translate(13 36)">
            <use fill="#000" filter="url(#a)" xlink:href="#b"/>
            <use fill="#FDEEFF" xlink:href="#b"/>
        </g>
        <path fill="#D0ABFE" d="M117.77 186.231l-18.307 24.306 18.303 35.3-.004-26.807z"/>
        <path fill="#F9A4FF" d="M195.567 255.467l-1.253-15.92-32.068 24.505 20.661 9.793 25.897-4.724z"/>
        <path fill="#AB7EFE" d="M59.95 127.255l41.42-23.132 16.335 5.672.057-2.591-33.656-11.135zM176.676 216.922l-25.867 6.055 18.299 16.57h25.201l1.257-31.307z"/>
        <path fill="#F9A4FF" d="M120.92 72.241l-3.215-19.549-4.867 38.806 4.894 12.624-.002-2.93z"/>
        <path fill="#A753EB" d="M111.492 91.936l6.24 12.187.03 3.08L86.084 95.55l31.62-42.86z"/>
        <path fill="#D0ABFE" d="M117.705 109.795l-40.568 26.796 27.675 1.368z"/>
        <path fill="#FDEAFF" d="M146.89 192.714V173.97l-2.46 22.385z"/>
        <path fill="#AB7EFE" d="M194.83 143.187l-47.94 30.783 47.78-.88 5.945-14.032z"/>
        <path fill="#E496FE" d="M146.89 221.881l48.667-47.911-36.807 19.215z"/>
        <path fill="#FBD8FF" d="M146.89 221.881v-29.168l-2.443 6.16z"/>
        <path fill="#B565F4" d="M148.061 174.926l-1.171 46.955 10.436-29.93 38.231-17.981z"/>
        <path fill="#F9A4FF" d="M194.17 116.176l1.39 24.418-37.016-17.498 41.027-38.298z"/>
        <path fill="#A753EB" d="M195.567 208.243l-18.677 8.612-30 5.027 23.29-21.603 24.13-22.38z"/>
        <path fill="#E496FE" d="M78.515 184.21l39.255 2.021 2.225-23.162z"/>
        <path fill="#F9A4FF" d="M285.366 80.22l2.538 16.048-53.893-43.57z"/>
        <path fill="#A753EB" d="M77.372 136.052l-3.897-11.56-13.525 2.763 41.566-22.213 16.188 4.753z"/>
        <path fill="#F9A4FF" d="M105.278 138.721l14.717 24.347-42.858-26.477z"/>
        <path fill="#FBD8FF" d="M42.76 166.134l8.092-55.87h-8.091z"/>
        <path fill="#FDEAFF" d="M42.76 166.134l.563-55.43-.562-.44z"/>
        <path fill="#FDEAFF" d="M42.761 110.264l.562.44 7.53-.44z"/>
        <path fill="#B565F4" d="M321.167 118.461l-4.132 1.358-29.13-23.55V81.99z"/>
        <path fill="#A753EB" d="M321.167 191.951l-6.614-46.897 2.482-25.235 4.132-1.4 4.781 52.193zM159.479 261.191l34.83-21.643h-25.201l-22.219-17.666z"/>
        <path fill="#AB7EFE" d="M98.566 210.565l19.203 35.27-31.67-10.154-11.156-16.114.921-34.808 41.904 1.468z"/>
        <path fill="#B565F4" d="M117.705 52.692l-66.853 57.572-8.091 55.87 17.188-38.88z"/>
        <path fill="#A753EB" d="M85.386 236.602l-10.443-17.035-.56 26.979 14.615 12.57 28.77-13.282zM115.886 300.832l-41.862 42.28 42.407-34.22z"/>
        <path fill="#D0ABFE" d="M72.88 289.485l14.363 16.25 28.642-4.903z"/>
        <path fill="#F9A4FF" d="M74.451 288.292l-.427-41.44 13.75 12.926 28.112 41.054z"/>
        <path fill="#AB7EFE" d="M86.894 307.31l28.991-6.478-41.861 42.28-.043-51.948z"/>
        <path fill="#F9ADFF" d="M116.826 270.64l-.94 30.192-25.327-41.013 27.21-13.985z"/>
        <path fill="#FBD8FF" d="M74.942 219.567l2.195-82.976-6.58 7.753z"/>
        <path fill="#B565F4" d="M117.703 109.798l2.29 53.273-14.713-24.347z"/>
        <path fill="#F9ADFF" d="M73.475 124.492l3.663 12.098-7.322 7.327-27.055 22.217L60.29 127.8z"/>
        <path fill="#A753EB" d="M75.864 184.76l1.273-48.169 42.857 26.477z"/>
        <path fill="#FBD8FF" d="M146.89 173.97l11.655-50.87-10.586-2.699z"/>
        <path fill="#FDEAFF" d="M117.705 52.692l-66.853 57.572h-8.091z"/>
        <path fill="#F9ADFF" d="M236.972 107.812l-37.4-23.015 4.906 25.673.004-.001 9.626 15.648z"/>
        <path fill="#FDEAFF" d="M158.546 123.1l41.026-38.302 34.439-32.1-84.503 65.297z"/>
        <path fill="#A753EB" d="M204.478 110.47l-4.907-25.672-5.4 31.378 1.389 24.413 15.015-13.588z"/>
        <path fill="#D0ABFE" d="M158.546 123.1l33.822 17.93-45.478 32.94z"/>
        <path fill="#FBD8FF" d="M146.89 221.881l10.325 42.293-10.35 13.232z"/>
        <path fill="#E496FE" d="M182.907 273.845l-24.361-9.17-9.94 12.73 84.999 65.435z"/>
        <path fill="#AB7EFE" d="M234.018 284.902l-.008 58.25 75.977-71.683z"/>
        <path fill="#E496FE" d="M321.167 191.951l-8.216 65.289-2.964 14.229 10.555 4.396z"/>
        <path fill="#FDEAFF" d="M74.942 219.567l-4.385-75.223 6.58-7.753-7.324 7.322z"/>
        <path fill="#F9ADFF" d="M301.416 230.142l-18.739 18.454-7.185 6.436 11.284 8.619 22.08 5.862 3.873-11.609z"/>
        <path fill="#FFF" d="M43.91 109.826l73.795-57.134-74.944 57.571zM42.761 110.264h8.091l-6.942-.438z"/>
        <path fill="#FDEAFF" d="M117.732 104.123l-4.894-12.625 4.867-38.806-6.213 39.244z"/>
        <path fill="#FBD8FF" d="M234.01 52.699l51.356 27.521 2.538 16.048-1.198-17.266z"/>
        <path fill="#FAE3FF" d="M146.89 173.97l45.478-32.94-33.824-17.934 37.016 17.498z"/>
        <path fill="#D0ABFE" d="M146.89 173.97l47.78-.881 5.944-14.031-5.057 14.912z"/>
        <path fill="#F9ADFF" d="M146.89 221.881l10.436-29.93 38.231-17.981-36.807 19.215z"/>
        <path fill="#D0ABFE" d="M169.108 239.548L146.89 221.88l30-5.025-26.081 6.121z"/>
        <path fill="#B565F4" d="M146.89 221.881l48.667-47.911.009 34.27-1.256-30.342z"/>
        <path fill="#E496FE" d="M146.89 221.881V173.97h48.667l-47.496.955z"/>
        <path fill="#FFF" d="M143.36 199.249l3.53-6.536-2.46 3.642 2.46-22.385z"/>
        <path fill="#FDEAFF" d="M143.36 199.249l3.53-6.536-2.443 6.16 2.443 23.008z"/>
        <path fill="#D0ABFE" d="M146.89 173.97l48.67-33.376 5.054 18.464-5.783-15.87z"/>
        <path fill="#A753EB" d="M234.014 343.152l75.973-71.683 8.734 6.083z"/>
        <path fill="#B565F4" d="M199.572 84.798l34.439-32.1 3.531 52.008z"/>
        <path fill="#A753EB" d="M42.76 166.134l17.19-38.879 57.755-74.563-58.43 74.218z"/>
        <path fill="#E496FE" d="M42.76 166.134l9.068-55.43 65.877-58.012-66.853 57.571z"/>
        <path fill="#E496FE" d="M117.763 107.203L86.083 95.55l31.622-42.857-33.599 43.377zM59.95 127.255l41.565-22.213 16.19 4.753-16.335-5.672z"/>
        <path fill="#A753EB" d="M199.572 84.798l37.971 19.929-3.532-52.028 5.715 54.798z"/>
        <path fill="#E496FE" d="M195.56 140.59L210.575 127l-6.097-16.53 8.152 16.67zM77.137 136.59l41.765 26.479-43.037 21.69 44.13-21.69z"/>
        <path fill="#FDEAFF" d="M42.76 166.134L60.29 127.8l13.185-3.308-13.526 2.764z"/>
        <path fill="#E496FE" d="M73.475 124.492l3.896 11.56 40.334-26.257-40.568 26.796z"/>
        <path fill="#FBD8FF" d="M77.137 136.59l28.141 2.131 14.716 24.348-15.072-23.43zM74.024 246.852l14.973 12.264 26.888 41.716-28.111-41.054z"/>
        <path fill="#FDEAFF" d="M115.886 300.832L90.559 259.82l27.207-13.982-28.768 13.279zM115.886 300.832l-41.435-12.54-.427-41.44-1.143 42.633z"/>
        <path fill="#FAE3FF" d="M115.886 300.832l-28.643 4.903-14.362-16.25 1.1 1.665 12.913 16.16z"/>
        <path fill="#E496FE" d="M115.886 300.832l1.818 8.291-43.681 33.99 42.408-34.22z"/>
        <path fill="#FAE3FF" d="M74.024 343.111l-.044-51.961-1.1-1.665zM77.137 136.59l27.675 1.37 12.893-28.165-12.427 28.926zM117.77 186.231l-18.307 24.306 18.307 35.109-19.204-35.081z"/>
        <path fill="#D0ABFE" d="M74.942 219.567l11.156 16.114 31.668 10.156-32.38-9.235zM74.942 219.567l-.56 26.979 14.616 12.57-14.974-12.264z"/>
        <path fill="#FAE3FF" d="M119.994 163.069l-41.48 21.141 39.253 2.017-41.902-1.468zM221.755 145.804l-17.277-35.334 18.58 30.124 30.783-21.24zM127.692 240.075l-27.619-18.194 25.093 19.337-8.34 29.421zM68.617 92.953l32.753 11.17L73.35 91.05l-8.52-27.356zM43.516 268.081l53.448 22.863-46.267-23.943 23.327-20.15z"/>
        <path fill="#F9ADFF" d="M85.987 77.057L64.83 63.694l18.383 15.494z"/>
        <path fill="#A753EB" d="M301.814 129.008l-62.088-21.511 41.038 34.078 33.79 3.48z"/>
        <path fill="#D0ABFE" d="M321.167 191.951L313.8 146.58l-33.378-3.535-1.638 9.762z"/>
        <path fill="#F9A4FF" d="M298.33 186.859l9.268 19.69-6.017 22.79 10.604 22.758 8.982-60.146zM240.665 104.473l17.245-16.884-23.9-34.89z"/>
        <path fill="#F9ADFF" d="M242.837 106.533l15.073-18.944 43.904 41.419z"/>
        <path fill="#AB7EFE" d="M316.145 120.41l-1.589 24.644-12.742-16.046-43.496-42.556-24.307-33.753 53.89 43.567z"/>
        <path fill="#A753EB" d="M231.559 286.094l2.452 57.059L212 270.276z"/>
        <path fill="#AB7EFE" d="M295.113 187.068l-20.695 5.978 2.324 58.378 24.84-22.084 6.016-22.791z"/>
        <path fill="#D0ABFE" d="M304.833 271.187l-18.057-7.536-11.73-6.956-41.028 28.208z"/>
        <path fill="#AB7EFE" d="M234.01 343.152L212 270.276l-26.715 4.432z"/>
        <path fill="#A753EB" d="M277.769 157.381l-3.351 35.666 21.278-7.76 25.471 6.664z"/>
        <path fill="#FDEAFF" d="M158.544 123.097l-11.237-4.475-.442-.176.025 55.535 1.069-53.58z"/>
        <path fill="#D0ABFE" d="M234.01 52.699l83.025 67.12-2.482 25.235 1.592-24.645z"/>
        <path fill="#AB7EFE" d="M280.42 143.044l-1.637 9.763 42.384 39.145-45.033-38.925z"/>
        <path fill="#E496FE" d="M239.726 107.497l41.038 34.078 33.789 3.48-34.132-2.01z"/>
        <path fill="#FAE3FF" d="M280.42 143.044l34.133 2.01 6.614 46.898-7.368-45.373zM325.948 170.613l-4.78-52.151 6.226 53.091-6.227 20.399zM287.904 81.99v14.278l-1.198-17.266 34.461 39.46z"/>
        <path fill="#B565F4" d="M234.01 52.699l23.9 34.89 43.904 41.419-43.496-42.556z"/>
        <path fill="#FFF" d="M149.508 117.995l84.503-65.298-87.146 65.749 11.68 4.65z"/>
        <path fill="#F9ADFF" d="M157.215 264.174l-10.325-42.292 11.656 42.793-11.682 12.73z"/>
        <path fill="#FDEAFF" d="M158.546 264.675l35.768-25.129-32.068 24.506 20.661 9.793z"/>
        <path fill="#B565F4" d="M146.864 277.405l11.682-12.73-9.94 12.73 85.405 65.747z"/>
        <path fill="#F9ADFF" d="M182.907 273.845l-24.361-9.17 23.492 10.993 51.973 67.484z"/>
        <path fill="#E496FE" d="M234.018 284.902L212 270.275l19.558 15.818 2.452 57.06z"/>
        <path fill="#FAE3FF" d="M321.167 277.4l-11.18-5.93 8.735 6.082-84.711 65.6z"/>
        <path fill="#F9ADFF" d="M321.167 277.4V191.95l-.625 83.914-10.555-4.396z"/>
        <path fill="#FAE3FF" d="M275.492 255.032l-41.474 29.87 41.028-28.207 11.73 6.956zM182.907 273.845l51.104 69.307-48.726-68.445L212 270.275z"/>
        <path fill="#D0ABFE" d="M295.696 185.287l-21.279 7.76 20.696-5.979 12.485 19.48z"/>
        <path fill="#FDEAFF" d="M295.696 185.287l11.902 21.262-9.268-19.69 22.837 5.092z"/>
        <path fill="#E496FE" d="M276.134 153.027l-1.717 40.019 3.352-35.665 43.398 34.57z"/>
        <path fill="#FBD8FF" d="M312.951 257.24l8.216-65.289-8.982 60.146-10.604-22.757z"/>
        <path fill="#FBD8FF" d="M309.987 271.469l2.964-14.23-4.096 12.274-22.079-5.863z"/>
        <path fill="#E496FE" d="M159.479 261.191l34.835-21.644-35.768 25.128-11.657-42.793z"/>
        <path fill="#D0ABFE" d="M309.987 271.469l-75.97 13.433 72.65-11.708-72.657 69.959z"/>
        <path fill="#FAE3FF" d="M275.492 255.032l26.089-25.692-24.838 22.084-2.326-58.378z"/>
        <path fill="#AB7EFE" d="M304.833 271.187l-70.815 13.716 75.97-13.434-23.212-7.818z"/>
        <path fill="#FBD8FF" d="M212 270.276l-16.433-14.809 13.238 13.655-25.898 4.723z"/>
        <path d="M301.581 229.34l-26.089 25.692 24.298-19.777 21.377 42.145-19.586-48.06zm-.166.802l15.156 37.188-16.374-32.282-.255-.504-.44.357-16.825 13.695 18.738-18.454z" fill="#FFF"/>
        <path fill="#FBD8FF" d="M234.01 52.699l6.655 51.773 17.246-16.883-18.185 19.908z"/>
        <path fill="#FBD8FF" d="M199.572 84.798l37.4 23.014-22.864 18.305 25.618-18.62z"/>
        <path fill="#FDEAFF" d="M257.91 87.589l-15.073 18.944 58.977 22.475-62.088-21.511z"/>
        <path fill="#F9ADFF" d="M182.943 274.983l10.696 28.082-11.216-27.357 4.674 23.096-5.767-22.56-.84 13.258-.276-12.576-8.295 10.784 7.135-11.046-9.776 5.659 8.381-6.16-16.72.45 16.984-1.816-12.967-2.829z"/>
        <path fill="#F9ADFF" d="M189.615 301.853l.022-1.763 1.531 4.77zM162.647 273.139l1.64.647-5.005-.265zM191.785 292.966l-.13-1.544 1.745 4.044zM182.267 290.125l.458-1.83.416 5.344zM175.966 288.742l1.655-2.009-2.648 6.906zM165.187 280.934l2.2-.517-5.463 3.374zM170.091 285.242l1.14-.63-2.504 2.723zM171.008 278.138l.665-.109-1.694.893zM163.946 269.77l-.586-.334-1.293-.037zM179.75 296.276l.572-1.168-.488 3.666zM194.358 305.843l-.159-1.292 1.593 3.338zM195.649 299.986l-.104-.85 1.047 2.195z"/>
        <path fill="#FDEAFF" d="M146.89 243.51l.752 28.64 1.333-30.22-.474 30.639 3.349-18.635-2.448 17.672 4.548-12.638-4.3 14.876-2.785 3.561z"/>
        <path fill="#FDEAFF" d="M152.792 259.503l-.778 1.688.775-3.063zM150.476 253.513l.525-1.415-.388-2.874zM147.64 249.048l.269-1.17-.345-2.169zM149.181 239.546l.184-.798-.235-1.483zM153.317 267.326l-.729 1.028 1.112-2.287zM154.022 262.687l-.788 1.725.974-2.624zM150.1 256.146l.15 2.396-.6 2.649zM153.066 254.86l-.679 1.864.81-4.383z"/>
        <path fill="#A753EB" d="M107.157 258.481l8.728 42.352.832-26.698-.935 5.308-.712-9.398-.272 10.748-1.879-15.863.89 17.544-3.16-20.633 1.974 19.966zM110.561 258.872l-.682-1.419.77 3.49zM106.574 254.486l-.802-1.05 1.032 3.145zM112.445 261.509l-.583-.565.839 2.892zM114.81 266.65l-.582-.565.839 2.892z"/>
        <path d="M106.77 158.952l-1.832-2.973 1.833 1.13v1.843zm-6.06-2.45l-3.66-3.982 3.147 2.345.513 1.637zm-5.022-1.637l.995.764.346 1.065-1.34-1.829zm-.883-2.42l-2.133-2.341 1.741 1.044.392 1.297zm-5.346-.93l1.327 1.368.037.493-1.364-1.862zm-.337-3.206l-2.394-2.776 1.424 1.098.97 1.678zm-4.624-1.706l-2.59-4.442 2.514 3.152.076 1.29zm34.404 16.465l-41.765-26.477 19.996 33.885-12.355-23.277 14.335 20.99-14.591-24.673 16.89 24.521L89.58 146.9l13.242 19.507-6.694-13.962 9.04 13.162-3.797-8.73 6.31 8.184-5.763-11.05 8.293 9.81-2.71-5.4 4.822 4.898-4.644-6.14 6.824 5.742-4.41-4.772 8.81 4.92z" fill="#E496FE"/>
        <path fill="#E496FE" d="M102.592 163.906l.505-.212.544 1.83zM110.815 162.752l.543 1.83-1.048-1.618zM98.655 165.268l.544 1.83-1.049-1.618zM96.407 166.488l.544 1.83-1.049-1.618zM99.38 162.686l.33 1.116-.638-.987zM97.188 159.338l.33 1.117-.638-.987zM100.074 164.448l.425-.178.459 1.542zM96.959 163.728l-.883-1.364.425-.18zM101.114 166.485l.3-.125.322 1.084zM105.907 164.53l-.621-.96.299-.126zM102.412 167.678l.532 1.793-1.027-1.585zM95.535 165.919l-.622-.96.3-.125zM100.18 167.689l.469 1.577-.904-1.395zM97.938 169.9l-.622-.96.3-.126zM101.957 162.341l.323 1.085-.622-.96zM103.774 165.824l.484.748-.251-.846zM106.731 160.355l.418 1.404-.805-1.242zM104.937 167.86l-.576-.89.277-.116zM104.773 161.95l.313 1.055-.604-.933zM100.771 169.542l.484.747-.251-.846zM96.127 158.097l.483.747-.25-.845zM95.361 161.154l.484.747-.25-.845zM94.213 163.765l.484.747-.25-.845zM107.03 166.783l-.979-1.51.471-.197zM114.204 161.434l.484.748-.25-.846zM113.177 162.64l.344 1.158-.663-1.025zM107.927 163.658l.357-.15.384 1.294zM107.259 162.471l.483.748-.25-.845zM97.65 163.956l.322 1.085-.621-.96zM98.34 160.623l.57 1.92-1.1-1.698zM42.798 165.963l2.188-13.409 7.869-35.538-6.765 34.578 9.407-35.327-8.167 34.19 8.01-22.355-6.624 21.665 7.535-15.674-9.74 22.636zM53.36 115.534l-.56 1.02.588-3.253zM55.928 114.668l-.56 1.021.588-3.254z"/>
        <path fill="#E496FE" d="M56.222 126.492l-.56 1.02.589-3.254z"/>
        <path fill="#FBD8FF" d="M175.13 130.94l-7-10.815 7.926 10.372-5.209-9.867 7.181 10.751-3.129-11.79 4.856 12.699.554-7.233 1.065 7.596 1.933-4.465-.771 5.66 2.171-2.851-1.13 3.162 3.507-2.434-2.541 3.057 3.868-1.334-2.524 1.568 4.202.157-2.82.567 5.028.932-2.645.26 4.342.828 1.566 2.834z"/>
        <path fill="#F9ADFF" d="M164.004 209.964l-11.347 9.177 22.195-11.886-17.937 11.343 27.238-11.804-23.549 11.694 16.071-1.565-29.785 4.958zM173.191 203.494l-2.6.759 6.322-4.388z"/>
        <path fill="#F9ADFF" d="M167.143 210.087l-1.189.347 2.892-2.007zM178.103 207.45l-1.19.348 2.892-2.007zM183.188 199.18l-1.19.347 2.893-2.007z"/>
        <path fill="#FBD8FF" d="M174.31 117.36l.098.721-.916-1.857zM170.337 118.974l.146 1.08-1.368-2.775zM177.896 119.474l.091-.428-.23-.808zM167.303 118.684l.106.784-.995-2.017zM170.166 126.038l.147 1.079-1.368-2.775zM171.624 116.453l.109.8-1.016-2.058zM180.308 121.946l.393-1.016-.25-2.073zM178.455 124.223l-.059 1.507-.524-2.561zM185.389 125.04l-.736 1.054 1.033-3.503zM185.917 128.772l-.41.473.677-1.645zM182.054 124.294l.283-.559-.025-1.2zM187.967 132.311l-.594.199 1.423-1.069zM191.657 130.954l-.607.157 1.493-.97zM188.285 128.437l-.53.335 1.124-1.38zM189.488 134.116l.626.031 1.088-.51zM191.856 135.57l.599.185 1.18-.226z"/>
        <path fill="#F9ADFF" d="M189.078 206.447l-1.19.347 2.893-2.007zM183.563 203.494l-2.6.759 6.321-4.388zM180.044 213.132l-2.708.05 7.253-2.574zM170.847 215.724l-1.732.032 4.637-1.646z"/>
        <path fill="#FAE3FF" d="M307.598 206.549l-6.017 22.79 4.4-21.118-9.565 20.047 8.772-20.522-10.09 14.454 9.595-14.891-11.016 10.43 10.789-11.487-11.796 7.169 11.4-7.61-13.304 3.507 13.191-4.15-14.44-1.767 14.421 1.094-13.685-6 13.85 5.571-12.415-11.045 13.059 10.928-5.5-10.43zM295.481 230.169l-.624.464 1.262-1.814z"/>
        <path fill="#FAE3FF" d="M294.032 223.905l-.655.419 1.388-1.72zM298.148 221.231l-.817.523 1.73-2.145zM300.155 226.038l-.974.96 1.757-3.466zM297.533 216.354l-.815.52 1.725-2.138zM292.438 219.262l-.716.304 1.655-1.465zM289.406 219.262l-.716.304 1.655-1.465zM285.998 214.49l-.778.017 2.081-.744zM295.152 214.701l-.947.402 2.19-1.937zM291.02 214.763l-.768.133 1.946-1.05zM288.287 210.306l-.777-.03 2.122-.62zM284.114 207.47l.739.242 1.472-.253zM287.113 203.482l1.493-.048-2.192-.295zM288.34 197.827l-.474-.616 1.835 1.233zM286.15 193.02l-.474-.616 1.834 1.234zM284.315 198.953l-.474-.616 1.835 1.234zM289.762 191.483l-.306-.715 1.47 1.651zM293.58 190.494l-.305-.715 1.47 1.65zM293.557 210.82l-1.241-.048 3.387-.988zM293.42 206.114l2.354-.377-3.53-.025zM292.717 202.252l-1.06-.646 3.44.786zM294.997 198.676l-.797-.952 3.007 1.846zM297.585 195.529l-.378-1.183 2.086 2.845z"/>
        <path fill="#D0ABFE" d="M309.987 271.469l-19.946 18.065-50.566 45.783 61.935-57.077-54.35 45.572 53.1-45.637-51.032 38.858 49.433-38.629-43.11 28.153 42.158-28.14-37.392 19.698 37.043-20.077zM255.175 300.886l-1.826.033 4.891-1.736zM251.085 309.27l-2.103.039 5.632-1.999zM245.547 319.337l-1.6.03 4.283-1.52z"/>
        <path fill="#D0ABFE" d="M242.987 325.956l-1.87.172L246 323.98zM248.983 325.022l-.985.09 2.574-1.132zM253.41 316.502l-1.174.108 3.064-1.349zM255.588 309.294l-.974.09 2.544-1.12zM258.67 302.134l-.713.066 1.86-.819zM265.62 293.254l-.713.065 1.86-.818z"/>
        <path fill="#FAE3FF" d="M322.261 187.068l4.142-14.852-4.37-19.113 3.38 19.084-4.317-13.812 3.84 15.424-3.446-8.896 3.008 10.83-3.092-6.98 2.668 8.532-2.477-4.896 2.077 7.095-1.644-3.35 1.335 4.975-.882-1.002.516 2.257-.729-.862.566 2.027-.537-.53.321 1.452-.384-.217zM321.137 150.583l.653 1.091-.931-3.339zM320.732 163.536l.403.227-.508-1.595zM320.547 167.577l.44.709-.54-1.843zM320.596 170.141l.7 1.26-.724-2.079zM320.81 173.432l.453.787-.552-1.75z"/>
        <path fill="#FAE3FF" d="M321.846 178.719l.309.61-.417-1.49zM321.901 180.647l.375.538-.66-1.385zM321.16 176.233l.331.54-.391-1.559zM322.692 160.293l-.57-1.72.034.709zM321.74 155.594l-.831-2.49.052 1.027zM320.195 156.053l.034.71.536 1.01z"/>
        <path fill="#D0ABFE" d="M274.392 96.968l40.552 28.687-38.681-29.832 38.57 28.007-33.503-26.955 33.725 25.683-28.965-24.74 28.965 23.026-27.422-24.233 28.512 23.798-.539 8.34zM274.994 94.393l.554.635-2.434-1.627zM279.883 95.252l.498.571-2.187-1.462z"/>
        <path d="M282.837 99.745l2.81 1.477 1.737 1.716s-4.488-3.143-4.547-3.193M284.686 97.117l.68.802s-2.786-1.863-2.836-1.936l2.156 1.134zM289.755 100.06l1.166.543.509.739zM292.378 107.028l1.725.697 1.165 1.3zM280.885 104.294l1.38.556 1.035.984s-2.366-1.505-2.415-1.54M289.912 110.746l1.38.556 1.035.984s-2.366-1.505-2.415-1.54M296.372 105.064l.744.399.516.646zM291.644 103.552l1.258.68.55.79zM271.167 94.937l-3.824-2.577 2.59 1.404zM282.092 101.652l-1.711-1.496 1.665.941zM288.39 106.195l2.236 1.267.493.565z" fill="#D0ABFE"/>
        <path fill="#E496FE" d="M232.64 58.554l-5.17 15.653 3.656-15.557-8.607 21.264 4.852-16.24-10.563 22.084 8.481-21.797-9.355 17.618 5.307-13.729-10.807 20.2 7.249-17.164-8.083 13.442 5.721-12.251-8.31 5.783 27-25.161-.643 14.474z"/>
        <path fill="#E496FE" d="M208.267 79.823l-.208-.867 1.65-1.577zM209.11 83.3l-.226-.94 1.196-1.62zM211.673 77.837L210.44 79.1l1.978-3.221zM210.48 86.268l-.171-1.055 1.154-1.7zM216.48 83.795l-.17-1.054 1.154-1.701zM212.555 87.662l-.147-.906.991-1.462zM220.748 80.07l1.615-3.95-1.039 5.126zM220.561 83.653l.57-1.392-.366 1.806zM223.01 74.678l.57-1.392-.366 1.806zM224.728 78.063l-.29-.59.812-1.985zM227.598 70.013l-.836 4.127-.465-.947zM230.645 66.652l-.69 4.205-.464-.947zM232.25 62.683l-.566 3.454-.38-.778zM231.831 69.113l-.28-.572.696-1.966zM212.01 82.487l-.113-.695.761-1.122zM215.434 80.84l-.113-.696.762-1.122zM215.082 81.3l-.848 2.375-.147-.91zM214.632 86.327l-.14-.857.939-1.383zM219.165 77.252l-.649 1.817-.113-.695z"/>
        <path d="M96.964 290.944l35.32 7.083-14.58 11.096 20.964-12.287-41.704-5.892zm15.614 2.666l24.731 3.495-13.31 7.8 8.562-6.516.802-.61-.989-.199-19.796-3.97z" fill="#FFF"/>
        <path d="M71.477 168.257l-25.782 21.985 54.379 31.64-46.76-31.632 18.163-21.993zm-3.673 3.73L52.962 189.96l-.32.386.416.281 35.627 24.1-42.205-24.555 21.324-18.185z" fill="#FDEAFF"/>
        <path d="M186.503 307.31h.003-.003zm-1.46 5.56l-5.446 26.8-.155.864.796-.371 30.265-14.746-.646-.487-29.811 14.82 6.457-32.44-14.262 40.83 45.08-17.578-.633-.478L173 347.352l12.044-34.482zM202.351 36l-16.093 52.724 13.914-37.02 4.306 58.766L202.351 36zm-.377 2.795l1.288 45.074-2.635-32.193-.138-2.19-.746 2.063-7.826 20.197 10.057-32.951zM101.37 104.123l20.97 7.282-3.627 21.622 8.826-23.986-26.169-4.918zm5.939 1.58l19.596 3.683-6.912 18.98 2.792-16.866.085-.393-.38-.133-15.181-5.272z" fill="#FFF"/>
        <path fill="#A753EB" d="M127.67 361.642l2.749-11.506-8.779 8.748-10.07.522z"/>
        <path fill="#F9ADFF" d="M111.57 359.405l18.849-9.269-8.779 8.748z"/>
        <path fill="#FDEAFF" d="M14.685 319.654l4.125 17.922 18.687-28.845z"/>
        <path fill="#F9A4FF" d="M37.497 308.731L18.81 337.576l4.32-18.28zM21.112 215.23l8.772-.375-8.026-4.485-2.416-7.075z"/>
        <path fill="#FBD8FF" d="M19.442 203.295l10.442 11.56-8.026-4.485z"/>
        <path fill="#F9A4FF" d="M337.654 204.897l21.554-9.715-10.47 7.805z"/>
        <path fill="#FAE3FF" d="M337.654 204.897l10.404-6.693 11.15-3.022z"/>
        <path fill="#F9ADFF" d="M306.81 435.65l8.718-7.099 5.29-11.936z"/>
        <path fill="#FAE3FF" d="M312.587 424.718l-5.778 10.933 14.009-19.036z"/>
        <path fill="#F9A4FF" d="M291.216 346.225l29.507-19.408-13.605 13.982z"/>
        <path fill="#E496FE" d="M291.216 346.225l13.77-12.323 15.737-7.085z"/>
        <path fill="#F9ADFF" d="M336.196 103.223l15.867-21.56-5.99 13.52z"/>
        <path fill="#A753EB" d="M351.226 148.172l9.882 4.675-5.888-1.346z"/>
        <path fill="#FDEAFF" d="M160.68 87.589l6.479-8.804-2.447 5.52z"/>
        <path fill="#F9ADFF" d="M50.394 239.656l6.48-8.803-2.448 5.52zM162.911 321.417l6.48-8.803-2.447 5.52zM54.373 426.895l6.479-8.803-2.447 5.52z"/>
        <path fill="#B565F4" d="M356.416 292.709l4.033-3.284 2.446-5.52z"/>
        <path fill="#FDEAFF" d="M336.196 103.223l6.544-12.383 9.323-9.177z"/>
        <path fill="#FFF" d="M13 319.106l5.81 18.47-4.125-17.922 22.812-10.922z"/>
        <path fill="#FDEAFF" d="M275.999 55.904l21.415-16.403-9.371 4.301z"/>
        <path fill="#F9A4FF" d="M275.999 55.904l16.353-10.303 5.062-6.1z"/>
        <path fill="#AB7EFE" d="M216.567 208.049l4.79 4.757 4.28-15.221z"/>
        <path fill="#FAE3FF" d="M225.636 197.585l-4.279 15.22 5.863 17.278z"/>
    </g>
</svg>
